<?xml version="1.0" encoding="UTF-8" standalone="no"?>
<!--Generator: Apple Native CoreSVG 341-->

<svg
   version="1.1"
   viewBox="0 0 3300 2200"
   id="svg33"
   sodipodi:docname="control_widget.svg"
   inkscape:version="1.4.2 (f4327f4, 2025-05-13)"
   xmlns:inkscape="http://www.inkscape.org/namespaces/inkscape"
   xmlns:sodipodi="http://sodipodi.sourceforge.net/DTD/sodipodi-0.dtd"
   xmlns="http://www.w3.org/2000/svg"
   xmlns:svg="http://www.w3.org/2000/svg">
  <defs
     id="defs33" />
  <sodipodi:namedview
     id="namedview33"
     pagecolor="#ffffff"
     bordercolor="#000000"
     borderopacity="0.25"
     inkscape:showpageshadow="2"
     inkscape:pageopacity="0.0"
     inkscape:pagecheckerboard="0"
     inkscape:deskcolor="#d1d1d1"
     showgrid="false"
     inkscape:zoom="0.83227273"
     inkscape:cx="1650.3004"
     inkscape:cy="811.63299"
     inkscape:window-width="3840"
     inkscape:window-height="2066"
     inkscape:window-x="-11"
     inkscape:window-y="-11"
     inkscape:window-maximized="1"
     inkscape:current-layer="svg33" />
  <!--glyph: "10199A", point size: 100.0, font version: "20.0d10e1", template writer version: "138.0.0"-->
  <style
     id="style1">.SFSymbolsPreviewWireframe {fill:none;opacity:1.0;stroke:black;stroke-width:0.5}
</style>
  <g
     id="Notes"
     transform="translate(-6.0076512,153.79574)">
    <rect
       height="2200"
       id="artboard"
       style="opacity:1;fill:#ffffff"
       width="3300"
       x="0"
       y="0" />
    <line
       style="opacity:1;fill:none;stroke:#000000;stroke-width:0.5"
       x1="263"
       x2="3036"
       y1="292"
       y2="292"
       id="line1" />
    <text
       style="font-weight:bold;font-size:13px;font-family:sans-serif;fill:#000000;stroke:none"
       transform="translate(263,322)"
       id="text1">Weight/Scale Variations</text>
    <text
       style="font-size:13px;font-family:sans-serif;text-anchor:middle;fill:#000000;stroke:none"
       transform="translate(559.711,322)"
       id="text2">Ultralight</text>
    <text
       style="font-size:13px;font-family:sans-serif;text-anchor:middle;fill:#000000;stroke:none"
       transform="translate(856.422,322)"
       id="text3">Thin</text>
    <text
       style="font-size:13px;font-family:sans-serif;text-anchor:middle;fill:#000000;stroke:none"
       transform="translate(1153.13,322)"
       id="text4">Light</text>
    <text
       style="font-size:13px;font-family:sans-serif;text-anchor:middle;fill:#000000;stroke:none"
       transform="translate(1449.84,322)"
       id="text5">Regular</text>
    <text
       style="font-size:13px;font-family:sans-serif;text-anchor:middle;fill:#000000;stroke:none"
       transform="translate(1746.56,322)"
       id="text6">Medium</text>
    <text
       style="font-size:13px;font-family:sans-serif;text-anchor:middle;fill:#000000;stroke:none"
       transform="translate(2043.27,322)"
       id="text7">Semibold</text>
    <text
       style="font-size:13px;font-family:sans-serif;text-anchor:middle;fill:#000000;stroke:none"
       transform="translate(2339.98,322)"
       id="text8">Bold</text>
    <text
       style="font-size:13px;font-family:sans-serif;text-anchor:middle;fill:#000000;stroke:none"
       transform="translate(2636.69,322)"
       id="text9">Heavy</text>
    <text
       style="font-size:13px;font-family:sans-serif;text-anchor:middle;fill:#000000;stroke:none"
       transform="translate(2933.4,322)"
       id="text10">Black</text>
    <line
       style="opacity:1;fill:none;stroke:#000000;stroke-width:0.5"
       x1="263"
       x2="3036"
       y1="1903"
       y2="1903"
       id="line10" />
    <g
       transform="matrix(0.2,0,0,0.2,263,1933)"
       id="g10">
      <path
         d="m 46.2402,4.15039 c 21.7773,0 39.4531,-17.627 39.4531,-39.4043 0,-21.7773 -17.6758,-39.4043 -39.4531,-39.4043 -21.7285,0 -39.4043,17.627 -39.4043,39.4043 0,21.7773 17.6758,39.4043 39.4043,39.4043 z m 0,-7.42188 c -17.6758,0 -31.9336,-14.3066 -31.9336,-31.9824 0,-17.6758 14.2578,-31.9824 31.9336,-31.9824 17.6758,0 31.9824,14.3066 31.9824,31.9824 0,17.6758 -14.3066,31.9824 -31.9824,31.9824 z m -17.9688,-31.9824 c 0,2.14844 1.51367,3.61328 3.75977,3.61328 h 10.498 v 10.5957 c 0,2.19727 1.46484,3.71094 3.61328,3.71094 2.24609,0 3.71094,-1.51367 3.71094,-3.71094 v -10.5957 h 10.5957 c 2.19727,0 3.71094,-1.46484 3.71094,-3.61328 0,-2.19727 -1.51367,-3.71094 -3.71094,-3.71094 h -10.5957 v -10.5469 c 0,-2.24609 -1.46484,-3.75977 -3.71094,-3.75977 -2.14844,0 -3.61328,1.51367 -3.61328,3.75977 v 10.5469 h -10.498 c -2.24609,0 -3.75977,1.51367 -3.75977,3.71094 z"
         id="path10" />
    </g>
    <g
       transform="matrix(0.2,0,0,0.2,281.506,1933)"
       id="g11">
      <path
         d="m 58.5449,14.5508 c 27.4902,0 49.8047,-22.3145 49.8047,-49.8047 0,-27.4902 -22.3145,-49.8047 -49.8047,-49.8047 -27.4902,0 -49.8047,22.3145 -49.8047,49.8047 0,27.4902 22.3145,49.8047 49.8047,49.8047 z m 0,-8.30078 c -22.9492,0 -41.5039,-18.5547 -41.5039,-41.5039 0,-22.9492 18.5547,-41.5039 41.5039,-41.5039 22.9492,0 41.5039,18.5547 41.5039,41.5039 0,22.9492 -18.5547,41.5039 -41.5039,41.5039 z m -22.6562,-41.5039 c 0,2.39258 1.66016,4.00391 4.15039,4.00391 h 14.3555 v 14.4043 c 0,2.44141 1.66016,4.15039 4.05273,4.15039 2.44141,0 4.15039,-1.66016 4.15039,-4.15039 v -14.4043 h 14.4043 c 2.44141,0 4.15039,-1.61133 4.15039,-4.00391 0,-2.44141 -1.70898,-4.15039 -4.15039,-4.15039 h -14.4043 v -14.3555 c 0,-2.49023 -1.70898,-4.19922 -4.15039,-4.19922 -2.39258,0 -4.05273,1.70898 -4.05273,4.19922 v 14.3555 h -14.3555 c -2.49023,0 -4.15039,1.70898 -4.15039,4.15039 z"
         id="path11" />
    </g>
    <g
       transform="matrix(0.2,0,0,0.2,304.924,1933)"
       id="g12">
      <path
         d="m 74.8535,28.3203 c 35.1074,0 63.623,-28.4668 63.623,-63.5742 0,-35.1074 -28.5156,-63.623 -63.623,-63.623 -35.1074,0 -63.5742,28.5156 -63.5742,63.623 0,35.1074 28.4668,63.5742 63.5742,63.5742 z m 0,-9.08203 c -30.127,0 -54.4922,-24.3652 -54.4922,-54.4922 0,-30.127 24.3652,-54.4922 54.4922,-54.4922 30.127,0 54.4922,24.3652 54.4922,54.4922 0,30.127 -24.3652,54.4922 -54.4922,54.4922 z m -28.8574,-54.4922 c 0,2.58789 1.85547,4.39453 4.58984,4.39453 h 19.7266 v 19.7754 c 0,2.68555 1.85547,4.58984 4.44336,4.58984 2.68555,0 4.54102,-1.85547 4.54102,-4.58984 v -19.7754 h 19.7754 c 2.68555,0 4.58984,-1.80664 4.58984,-4.39453 0,-2.73438 -1.85547,-4.58984 -4.58984,-4.58984 h -19.7754 v -19.7266 c 0,-2.73438 -1.85547,-4.63867 -4.54102,-4.63867 -2.58789,0 -4.44336,1.9043 -4.44336,4.63867 v 19.7266 h -19.7266 c -2.73438,0 -4.58984,1.85547 -4.58984,4.58984 z"
         id="path12" />
    </g>
    <text
       style="font-weight:bold;font-size:13px;font-family:sans-serif;fill:#000000;stroke:none"
       transform="translate(263,1953)"
       id="text12">Design Variations</text>
    <text
       style="font-size:13px;font-family:sans-serif;fill:#000000;stroke:none"
       transform="translate(263,1971)"
       id="text13">Symbols are supported in up to nine weights and three scales.</text>
    <text
       style="font-size:13px;font-family:sans-serif;fill:#000000;stroke:none"
       transform="translate(263,1989)"
       id="text14">For optimal layout with text and other symbols, vertically align</text>
    <text
       style="font-size:13px;font-family:sans-serif;fill:#000000;stroke:none"
       transform="translate(263,2007)"
       id="text15">symbols with the adjacent text.</text>
    <line
       style="opacity:1;fill:none;stroke:#00aeef;stroke-width:0.5"
       x1="776"
       x2="776"
       y1="1919"
       y2="1933"
       id="line15" />
    <g
       transform="matrix(0.2,0,0,0.2,776,1933)"
       id="g15">
      <path
         d="m 16.5527,0.78125 c 2.58789,0 3.85742,-0.976562 4.78516,-3.71094 l 6.29883,-17.2363 h 28.8086 l 6.29883,17.2363 c 0.927734,2.73438 2.19727,3.71094 4.73633,3.71094 2.58789,0 4.24805,-1.5625 4.24805,-4.00391 0,-0.830078 -0.146484,-1.61133 -0.537109,-2.63672 l -22.9004,-60.9863 c -1.12305,-2.97852 -3.125,-4.49219 -6.25,-4.49219 -3.02734,0 -5.07812,1.46484 -6.15234,4.44336 l -22.9004,61.084 c -0.390625,1.02539 -0.537109,1.80664 -0.537109,2.63672 0,2.44141 1.5625,3.95508 4.10156,3.95508 z m 13.4766,-28.3691 11.8652,-32.8613 h 0.244141 l 11.8652,32.8613 z"
         id="path15" />
    </g>
    <line
       style="opacity:1;fill:none;stroke:#00aeef;stroke-width:0.5"
       x1="792.836"
       x2="792.836"
       y1="1919"
       y2="1933"
       id="line16" />
    <text
       style="font-weight:bold;font-size:13px;font-family:sans-serif;fill:#000000;stroke:none"
       transform="translate(776,1953)"
       id="text16">Margins</text>
    <text
       style="font-size:13px;font-family:sans-serif;fill:#000000;stroke:none"
       transform="translate(776,1971)"
       id="text17">Leading and trailing margins on the left and right side of each symbol</text>
    <text
       style="font-size:13px;font-family:sans-serif;fill:#000000;stroke:none"
       transform="translate(776,1989)"
       id="text18">can be adjusted by modifying the x-location of the margin guidelines.</text>
    <text
       style="font-size:13px;font-family:sans-serif;fill:#000000;stroke:none"
       transform="translate(776,2007)"
       id="text19">Modifications are automatically applied proportionally to all</text>
    <text
       style="font-size:13px;font-family:sans-serif;fill:#000000;stroke:none"
       transform="translate(776,2025)"
       id="text20">scales and weights.</text>
    <g
       transform="matrix(0.2,0,0,0.2,1289,1933)"
       id="g20">
      <path
         d="m 14.209,9.32617 8.49609,8.54492 c 4.29688,4.3457 9.22852,4.05273 13.8672,-1.07422 l 53.4668,-58.9355 -4.83398,-4.88281 -53.0762,58.3984 c -1.75781,2.00195 -3.41797,2.49023 -5.76172,0.146484 l -5.85938,-5.81055 c -2.34375,-2.29492 -1.80664,-4.00391 0.195312,-5.81055 l 57.373,-54.0039 -4.88281,-4.83398 -57.959,54.4434 c -4.93164,4.58984 -5.32227,9.47266 -1.02539,13.8184 z m 32.0801,-90.9668 c -2.09961,2.05078 -2.24609,4.93164 -1.07422,6.88477 1.17188,1.80664 3.4668,2.97852 6.68945,2.14844 7.32422,-1.70898 14.9414,-2.00195 22.0703,2.68555 l -2.92969,7.27539 c -1.70898,4.15039 -0.830078,7.08008 1.85547,9.81445 l 11.4746,11.5723 c 2.44141,2.44141 4.49219,2.53906 7.32422,2.05078 l 5.32227,-0.976562 3.32031,3.36914 -0.19531,2.7832 c -0.195314,2.49023 0.43945,4.39453 2.88086,6.78711 l 3.80859,3.71094 c 2.39258,2.39258 5.46875,2.53906 7.8125,0.195312 l 14.5508,-14.5996 c 2.34375,-2.34375 2.24609,-5.32227 -0.14649,-7.71484 l -3.85742,-3.80859 c -2.39258,-2.39258 -4.24805,-3.17383 -6.64062,-2.97852 l -2.88086,0.244141 -3.22266,-3.17383 1.2207,-5.61523 c 0.63477,-2.83203 -0.14648,-5.0293 -3.07617,-7.95898 l -10.986296,-10.9375 c -16.6992,-16.6016 -38.8672,-16.2109 -53.3203,-1.75781 z m 7.4707,1.85547 c 12.1582,-8.88672 28.6133,-7.37305 39.7461,3.75977 l 12.1582,12.0605 c 1.17188,1.17188 1.36719,2.09961 1.02539,3.80859 l -1.61133,7.42188 7.51953,7.42188 4.93164,-0.292969 c 1.26953,-0.04883 1.66016,0.04883 2.63672,1.02539 l 2.88086,2.88086 -12.207,12.207 -2.88086,-2.88086 c -0.97656,-0.976562 -1.12305,-1.36719 -1.07422,-2.68555 l 0.3418,-4.88281 -7.470703,-7.42188 -7.61719,1.26953 c -1.61133,0.341797 -2.34375,0.195312 -3.56445,-0.976562 l -10.0098,-10.0098 c -1.26953,-1.17188 -1.41602,-2.00195 -0.634766,-3.85742 l 4.39453,-10.4492 c -7.8125,-7.27539 -17.9688,-10.4004 -28.125,-7.42188 -0.78125,0.195312 -1.07422,-0.439453 -0.439453,-0.976562 z"
         id="path20" />
    </g>
    <text
       style="font-weight:bold;font-size:13px;font-family:sans-serif;fill:#000000;stroke:none"
       transform="translate(1289,1953)"
       id="text21">Exporting</text>
    <text
       style="font-size:13px;font-family:sans-serif;fill:#000000;stroke:none"
       transform="translate(1289,1971)"
       id="text22">Symbols should be outlined when exporting to ensure the</text>
    <text
       style="font-size:13px;font-family:sans-serif;fill:#000000;stroke:none"
       transform="translate(1289,1989)"
       id="text23">design is preserved when submitting to Xcode.</text>
    <text
       id="template-version"
       style="font-size:13px;font-family:sans-serif;text-anchor:end;fill:#000000;stroke:none"
       transform="translate(3036,1933)">Template v.6.0</text>
    <text
       style="font-size:13px;font-family:sans-serif;text-anchor:end;fill:#000000;stroke:none"
       transform="translate(3036,1951)"
       id="text24">Requires Xcode 16 or greater</text>
    <text
       id="descriptive-name"
       style="font-size:13px;font-family:sans-serif;text-anchor:end;fill:#000000;stroke:none"
       transform="translate(3036,1969)">Generated from square.and.arrow.up</text>
    <text
       style="font-size:13px;font-family:sans-serif;text-anchor:end;fill:#000000;stroke:none"
       transform="translate(3036,1987)"
       id="text25">Typeset at 100.0 points</text>
    <text
       style="font-size:13px;font-family:sans-serif;fill:#000000;stroke:none"
       transform="translate(263,726)"
       id="text26">Small</text>
    <text
       style="font-size:13px;font-family:sans-serif;fill:#000000;stroke:none"
       transform="translate(263,1156)"
       id="text27">Medium</text>
    <text
       style="font-size:13px;font-family:sans-serif;fill:#000000;stroke:none"
       transform="translate(263,1586)"
       id="text28">Large</text>
  </g>
  <g
     id="Guides">
    <g
       id="H-reference"
       style="fill:#27AAE1;stroke:none;"
       transform="matrix(1 0 0 1 339 696)">
      <path
         d="M0.993654 0L3.63775 0L29.3281-67.1323L30.0303-67.1323L30.0303-70.459L28.1226-70.459ZM11.6885-24.4799L46.9815-24.4799L46.2315-26.7285L12.4385-26.7285ZM55.1196 0L57.7637 0L30.6382-70.459L29.4326-70.459L29.4326-67.1323Z"
         id="path28" />
    </g>
    <line
       id="Baseline-S"
       style="fill:none;stroke:#27AAE1;opacity:1;stroke-width:0.5;"
       x1="263"
       x2="3036"
       y1="696"
       y2="696" />
    <line
       id="Capline-S"
       style="fill:none;stroke:#27AAE1;opacity:1;stroke-width:0.5;"
       x1="263"
       x2="3036"
       y1="625.541"
       y2="625.541" />
    <g
       id="g29"
       style="fill:#27AAE1;stroke:none;"
       transform="matrix(1 0 0 1 339 1126)">
      <path
         d="M0.993654 0L3.63775 0L29.3281-67.1323L30.0303-67.1323L30.0303-70.459L28.1226-70.459ZM11.6885-24.4799L46.9815-24.4799L46.2315-26.7285L12.4385-26.7285ZM55.1196 0L57.7637 0L30.6382-70.459L29.4326-70.459L29.4326-67.1323Z"
         id="path29" />
    </g>
    <line
       id="Baseline-M"
       style="fill:none;stroke:#27AAE1;opacity:1;stroke-width:0.5;"
       x1="263"
       x2="3036"
       y1="1126"
       y2="1126" />
    <line
       id="Capline-M"
       style="fill:none;stroke:#27AAE1;opacity:1;stroke-width:0.5;"
       x1="263"
       x2="3036"
       y1="1055.54"
       y2="1055.54" />
    <g
       id="g30"
       style="fill:#27AAE1;stroke:none;"
       transform="matrix(1 0 0 1 339 1556)">
      <path
         d="M0.993654 0L3.63775 0L29.3281-67.1323L30.0303-67.1323L30.0303-70.459L28.1226-70.459ZM11.6885-24.4799L46.9815-24.4799L46.2315-26.7285L12.4385-26.7285ZM55.1196 0L57.7637 0L30.6382-70.459L29.4326-70.459L29.4326-67.1323Z"
         id="path30" />
    </g>
    <line
       id="Baseline-L"
       style="fill:none;stroke:#27AAE1;opacity:1;stroke-width:0.5;"
       x1="263"
       x2="3036"
       y1="1556"
       y2="1556" />
    <line
       id="Capline-L"
       style="fill:none;stroke:#27AAE1;opacity:1;stroke-width:0.5;"
       x1="263"
       x2="3036"
       y1="1485.54"
       y2="1485.54" />
    <line
       id="right-margin-Black-S"
       style="fill:none;stroke:#00AEEF;stroke-width:0.5;opacity:1.0;"
       x1="2980.81"
       x2="2980.81"
       y1="600.785"
       y2="720.121" />
    <line
       id="left-margin-Black-S"
       style="fill:none;stroke:#00AEEF;stroke-width:0.5;opacity:1.0;"
       x1="2885.99"
       x2="2885.99"
       y1="600.785"
       y2="720.121" />
    <line
       id="right-margin-Regular-S"
       style="fill:none;stroke:#00AEEF;stroke-width:0.5;opacity:1.0;"
       x1="1493.96"
       x2="1493.96"
       y1="600.785"
       y2="720.121" />
    <line
       id="left-margin-Regular-S"
       style="fill:none;stroke:#00AEEF;stroke-width:0.5;opacity:1.0;"
       x1="1405.73"
       x2="1405.73"
       y1="600.785"
       y2="720.121" />
    <line
       id="right-margin-Ultralight-S"
       style="fill:none;stroke:#00AEEF;stroke-width:0.5;opacity:1.0;"
       x1="601.625"
       x2="601.625"
       y1="600.785"
       y2="720.121" />
    <line
       id="left-margin-Ultralight-S"
       style="fill:none;stroke:#00AEEF;stroke-width:0.5;opacity:1.0;"
       x1="517.797"
       x2="517.797"
       y1="600.785"
       y2="720.121" />
  </g>
  <g
     id="Symbols">
    <g
       id="Black-S"
       transform="matrix(1 0 0 1 2885.99 696)">
      <path
         id="path10-1-9"
         style="display:inline;stroke-width:0.0100354"
         d="m 2941.8314,671.72236 c -0.4044,0.26147 -0.6066,0.71119 -0.6066,1.34917 0,0.46018 0.048,0.58569 0.337,0.94128 0.1926,0.21963 0.4526,0.43926 0.5971,0.4811 1.0303,0.27193 11.7862,2.24862 12.0559,2.20678 1.2615,-0.20917 1.6081,-2.20678 0.4911,-2.8343 -0.337,-0.18826 -11.4975,-2.3532 -12.1233,-2.3532 -0.2697,0 -0.5682,0.0837 -0.7512,0.20917 z m -26.4614,0.88899 c -3.0718,0.59614 -5.7294,1.16092 -5.9028,1.24459 -1.1458,0.59613 -0.8088,2.62512 0.4719,2.84475 0.337,0.0523 11.6708,-2.06036 12.1329,-2.26953 0.4815,-0.20917 0.78,-0.65889 0.8378,-1.25504 0.087,-1.02495 -0.4719,-1.67339 -1.4348,-1.65247 -0.2889,0 -3.0332,0.49156 -6.105,1.0877 z m 26.4518,-5.69998 c -0.9918,0.6589 -0.9147,2.2277 0.1252,2.72972 0.4141,0.19871 0.6356,0.20917 6.4709,0.17779 l 6.0472,-0.0314 0.3467,-0.24055 c 0.9244,-0.61706 0.8667,-2.13357 -0.1059,-2.6565 -0.3081,-0.1778 -0.8185,-0.18825 -6.4517,-0.18825 -5.9317,0 -6.1243,0.0104 -6.4324,0.20917 z m -32.3738,-0.0209 c -0.9726,0.52294 -1.0303,2.03944 -0.1059,2.65651 l 0.3466,0.24054 6.0472,0.0314 c 5.8354,0.0314 6.0569,0.0209 6.471,-0.17779 1.0785,-0.52294 1.1073,-2.17541 0.048,-2.75063 -0.3082,-0.1778 -0.8185,-0.18826 -6.4035,-0.18826 -5.585,0 -6.0954,0.0105 -6.4035,0.18826 z m 38.3825,-5.78364 c -3.0621,0.58568 -5.7198,1.15045 -5.8931,1.24458 -0.7222,0.36605 -0.9726,1.60017 -0.4622,2.25907 0.3081,0.38697 0.7029,0.62752 1.0592,0.62752 0.5874,0 11.7478,-2.19632 12.0752,-2.37412 0.4526,-0.26146 0.7704,-0.79486 0.7704,-1.32825 0,-0.93082 -0.5971,-1.53742 -1.4926,-1.51651 -0.26,0.0104 -2.9851,0.49156 -6.0569,1.08771 z m -38.421,-0.89945 c -0.4815,0.34514 -0.6644,0.77394 -0.6163,1.43284 0.048,0.61706 0.3371,1.07724 0.8378,1.28641 0.3081,0.13597 11.6225,2.31137 12.0077,2.31137 0.1541,0 0.4237,-0.0941 0.597,-0.20917 0.9148,-0.6066 0.9245,-2.15449 0.019,-2.66696 -0.3466,-0.19872 -11.4781,-2.35321 -12.1329,-2.35321 -0.2696,0 -0.5393,0.0837 -0.7126,0.19872 z m 20.1156,-0.26147 c -0.3081,0.14642 -0.5295,0.53339 -0.5295,0.94128 0,0.29285 1.9162,3.53504 2.3688,4.00568 0.2214,0.24054 0.414,0.34513 0.6162,0.34513 0.2022,0 0.3948,-0.10459 0.6163,-0.34513 0.4526,-0.47064 2.3688,-3.71283 2.3688,-4.00568 0,-0.38697 -0.2118,-0.77394 -0.4911,-0.94128 -0.3755,-0.19871 -4.5161,-0.20917 -4.9495,0 z m 9.2442,-6.68309 c -0.78,0.3033 -1.3962,1.37009 -1.2614,2.2277 0.096,0.64843 0.4911,1.23412 1.04,1.52696 l 0.5007,0.27193 h 3.2355 3.2354 l 0.5007,-0.27193 c 0.8185,-0.43926 1.2133,-1.391 0.9822,-2.34274 -0.1445,-0.59614 -0.7703,-1.29688 -1.3,-1.45376 -0.6066,-0.17779 -6.442,-0.14642 -6.9331,0.0418 z m -20.5104,0 c -0.78,0.3033 -1.3963,1.37009 -1.2615,2.2277 0.096,0.64843 0.4911,1.23412 1.04,1.52696 l 0.5007,0.27193 h 3.2354 3.2355 l 0.5007,-0.27193 c 0.8185,-0.43926 1.2133,-1.391 0.9822,-2.34274 -0.1444,-0.59614 -0.7703,-1.29688 -1.3,-1.45376 -0.6066,-0.17779 -6.4419,-0.14642 -6.933,0.0418 z m -6.9236,-32.95528 c -0.4332,0.17779 -0.857,0.59614 -1.0592,1.04586 -0.3562,0.82624 -2.7829,11.96473 -3.8517,17.68562 -2.6288,14.06692 -4.5547,30.25695 -6.2783,52.60713 -0.087,1.14 -0.1349,2.33229 -0.106,2.64605 0.1253,1.2655 1.0304,2.63558 2.1377,3.21081 0.5778,0.29285 2.34,0.61706 6.3073,1.13999 8.4064,1.12954 14.9736,1.56881 23.5437,1.56881 9.7642,0.0104 18.1031,-0.64844 27.4243,-2.13357 2.1763,-0.34514 2.6673,-0.53339 3.4377,-1.3178 0.7029,-0.71119 1.0977,-1.642 1.1363,-2.66695 0.087,-1.9767 -1.0592,-14.84086 -2.1473,-24.09679 -2.3111,-19.69369 -5.1228,-35.8105 -8.4258,-48.19357 -0.2022,-0.76349 -1.0784,-1.52697 -1.7428,-1.53743 -0.1349,0 -0.4622,0.12551 -0.7415,0.27193 -0.5682,0.3033 -0.2696,-0.16734 -4.2658,6.65171 -1.5022,2.57284 -2.7925,4.68549 -2.8695,4.68549 -0.068,0 -0.7896,-0.23009 -1.5889,-0.51247 -3.6592,-1.28642 -6.625,-1.80936 -10.2167,-1.80936 -3.5725,0.0105 -6.8561,0.61707 -10.1493,1.89303 -0.6067,0.24054 -1.1652,0.4288 -1.2518,0.4288 -0.096,0 -1.6467,-2.26953 -3.8133,-5.55356 -3.8613,-5.85685 -3.9384,-5.95098 -4.7665,-6.0974 -0.1926,-0.0314 -0.5007,0 -0.7126,0.0837 z m 4.6703,11.61958 c 1.7622,2.67742 3.2354,4.86329 3.2835,4.86329 0.038,0 0.7126,-0.28239 1.5022,-0.61706 4.4295,-1.9244 7.4243,-2.62513 11.2471,-2.62513 3.8518,0 7.0969,0.73211 11.69,2.63558 0.8186,0.33468 1.5407,0.59615 1.6082,0.58569 0.068,-0.0209 1.348,-2.12311 2.8502,-4.67503 1.4926,-2.55191 2.7637,-4.64365 2.8118,-4.63319 0.058,0 0.3178,0.99357 0.597,2.20678 3.6688,16.0959 7.0775,40.67378 8.6375,62.29186 0.068,0.97266 0.096,1.80936 0.068,1.84073 -0.029,0.0418 -1.0111,0.21963 -2.1762,0.39743 -5.9991,0.9099 -10.6693,1.39101 -17.5736,1.80935 -2.8888,0.1778 -14.0684,0.1778 -16.9476,0 -7.1065,-0.42881 -11.2471,-0.85761 -17.6409,-1.81981 l -2.1955,-0.32422 v -0.33468 c 0,-0.18825 0.1348,-1.9976 0.2889,-4.03704 1.9162,-24.43147 4.0732,-40.9248 7.4049,-56.7906 0.934,-4.44494 1.2036,-5.63723 1.2711,-5.63723 0.038,0 1.5021,2.18586 3.2739,4.86328 z"
         transform="translate(-2885.99,-696)" />
    </g>
    <g
       id="Regular-S"
       transform="matrix(1 0 0 1 1405.73 696)">
      <path
         id="path10-1-7"
         style="display:inline;stroke-width:0.0100354"
         d="m 54.2051,-23.46388 c -0.4044,0.26147 -0.6066,0.71119 -0.6066,1.34917 0,0.46018 0.048,0.58569 0.337,0.94128 0.1926,0.21963 0.4526,0.43926 0.5971,0.4811 1.0303,0.27193 11.7862,2.24862 12.0559,2.20678 1.2615,-0.20917 1.6081,-2.20678 0.4911,-2.8343 -0.337,-0.18826 -11.4975,-2.3532 -12.1233,-2.3532 -0.2697,0 -0.5682,0.0837 -0.7512,0.20917 z m -26.4614,0.88899 c -3.0718,0.59614 -5.7294,1.16092 -5.9028,1.24459 -1.1458,0.59613 -0.8088,2.62512 0.4719,2.84475 0.337,0.0523 11.6708,-2.06036 12.1329,-2.26953 0.4815,-0.20917 0.78,-0.65889 0.8378,-1.25504 0.087,-1.02495 -0.4719,-1.67339 -1.4348,-1.65247 -0.2889,0 -3.0332,0.49156 -6.105,1.0877 z m 26.4518,-5.69998 c -0.9918,0.6589 -0.9147,2.2277 0.1252,2.72972 0.4141,0.19871 0.6356,0.20917 6.4709,0.17779 l 6.0472,-0.0314 0.3467,-0.24055 c 0.9244,-0.61706 0.8667,-2.13357 -0.1059,-2.6565 -0.3081,-0.1778 -0.8185,-0.18825 -6.4517,-0.18825 -5.9317,0 -6.1243,0.0104 -6.4324,0.20917 z m -32.3738,-0.0209 c -0.9726,0.52294 -1.0303,2.03944 -0.1059,2.65651 l 0.3466,0.24054 6.0472,0.0314 c 5.8354,0.0314 6.0569,0.0209 6.471,-0.17779 1.0785,-0.52294 1.1073,-2.17541 0.048,-2.75063 -0.3082,-0.1778 -0.8185,-0.18826 -6.4035,-0.18826 -5.585,0 -6.0954,0.0105 -6.4035,0.18826 z m 38.3825,-5.78364 c -3.0621,0.58568 -5.7198,1.15045 -5.8931,1.24458 -0.7222,0.36605 -0.9726,1.60017 -0.4622,2.25907 0.3081,0.38697 0.7029,0.62752 1.0592,0.62752 0.5874,0 11.7478,-2.19632 12.0752,-2.37412 0.4526,-0.26146 0.7704,-0.79486 0.7704,-1.32825 0,-0.93082 -0.5971,-1.53742 -1.4926,-1.51651 -0.26,0.0104 -2.9851,0.49156 -6.0569,1.08771 z m -38.421,-0.89945 c -0.4815,0.34514 -0.6644,0.77394 -0.6163,1.43284 0.048,0.61706 0.3371,1.07724 0.8378,1.28641 0.3081,0.13597 11.6225,2.31137 12.0077,2.31137 0.1541,0 0.4237,-0.0941 0.597,-0.20917 0.9148,-0.6066 0.9245,-2.15449 0.019,-2.66696 -0.3466,-0.19872 -11.4781,-2.35321 -12.1329,-2.35321 -0.2696,0 -0.5393,0.0837 -0.7126,0.19872 z m 20.1156,-0.26147 c -0.3081,0.14642 -0.5295,0.53339 -0.5295,0.94128 0,0.29285 1.9162,3.53504 2.3688,4.00568 0.2214,0.24054 0.414,0.34513 0.6162,0.34513 0.2022,0 0.3948,-0.10459 0.6163,-0.34513 0.4526,-0.47064 2.3688,-3.71283 2.3688,-4.00568 0,-0.38697 -0.2118,-0.77394 -0.4911,-0.94128 -0.3755,-0.19871 -4.5161,-0.20917 -4.9495,0 z m 9.2442,-6.68309 c -0.78,0.3033 -1.3962,1.37009 -1.2614,2.2277 0.096,0.64843 0.4911,1.23412 1.04,1.52696 l 0.5007,0.27193 h 3.2355 3.2354 l 0.5007,-0.27193 c 0.8185,-0.43926 1.2133,-1.391 0.9822,-2.34274 -0.1445,-0.59614 -0.7703,-1.29688 -1.3,-1.45376 -0.6066,-0.17779 -6.442,-0.14642 -6.9331,0.0418 z m -20.5104,0 c -0.78,0.3033 -1.3963,1.37009 -1.2615,2.2277 0.096,0.64843 0.4911,1.23412 1.04,1.52696 l 0.5007,0.27193 h 3.2354 3.2355 l 0.5007,-0.27193 c 0.8185,-0.43926 1.2133,-1.391 0.9822,-2.34274 -0.1444,-0.59614 -0.7703,-1.29688 -1.3,-1.45376 -0.6066,-0.17779 -6.4419,-0.14642 -6.933,0.0418 z M 23.709,-74.8787 c -0.4332,0.17779 -0.857,0.59614 -1.0592,1.04586 -0.3562,0.82624 -2.7829,11.96473 -3.8517,17.68562 -2.6288,14.06692 -4.5547,30.25695 -6.2783,52.60713 -0.087,1.14 -0.1349,2.33229 -0.106,2.64605 0.1253,1.2655 1.0304,2.63558 2.1377,3.21081 0.5778,0.29285 2.34,0.61706 6.3073,1.13999 8.4064,1.12954 14.9736,1.56881 23.5437,1.56881 9.7642,0.0104 18.1031,-0.64844 27.4243,-2.13357 2.1763,-0.34514 2.6673,-0.53339 3.4377,-1.3178 0.7029,-0.71119 1.0977,-1.642 1.1363,-2.66695 0.087,-1.9767 -1.0592,-14.84086 -2.1473,-24.09679 -2.3111,-19.69369 -5.1228,-35.8105 -8.4258,-48.19357 -0.2022,-0.76349 -1.0784,-1.52697 -1.7428,-1.53743 -0.1349,0 -0.4622,0.12551 -0.7415,0.27193 -0.5682,0.3033 -0.2696,-0.16734 -4.2658,6.65171 -1.5022,2.57284 -2.7925,4.68549 -2.8695,4.68549 -0.068,0 -0.7896,-0.23009 -1.5889,-0.51247 -3.6592,-1.28642 -6.625,-1.80936 -10.2167,-1.80936 -3.5725,0.0105 -6.8561,0.61707 -10.1493,1.89303 -0.6067,0.24054 -1.1652,0.4288 -1.2518,0.4288 -0.096,0 -1.6467,-2.26953 -3.8133,-5.55356 -3.8613,-5.85685 -3.9384,-5.95098 -4.7665,-6.0974 -0.1926,-0.0314 -0.5007,0 -0.7126,0.0837 z m 4.6703,11.61958 c 1.7622,2.67742 3.2354,4.86329 3.2835,4.86329 0.038,0 0.7126,-0.28239 1.5022,-0.61706 4.4295,-1.9244 7.4243,-2.62513 11.2471,-2.62513 3.8518,0 7.0969,0.73211 11.69,2.63558 0.8186,0.33468 1.5407,0.59615 1.6082,0.58569 0.068,-0.0209 1.348,-2.12311 2.8502,-4.67503 1.4926,-2.55191 2.7637,-4.64365 2.8118,-4.63319 0.058,0 0.3178,0.99357 0.597,2.20678 3.6688,16.0959 7.0775,40.67378 8.6375,62.29186 0.068,0.97266 0.096,1.80936 0.068,1.84073 -0.029,0.0418 -1.0111,0.21963 -2.1762,0.39743 -5.9991,0.9099 -10.6693,1.39101 -17.5736,1.80935 -2.8888,0.1778 -14.0684,0.1778 -16.9476,0 C 28.8709,0.39237 24.7303,-0.03643 18.3365,-0.99863 L 16.141,-1.32285 v -0.33468 c 0,-0.18825 0.1348,-1.9976 0.2889,-4.03704 1.9162,-24.43147 4.0732,-40.9248 7.4049,-56.7906 0.934,-4.44494 1.2036,-5.63723 1.2711,-5.63723 0.038,0 1.5021,2.18586 3.2739,4.86328 z" />
    </g>
    <g
       id="Ultralight-S"
       transform="translate(647.56215,700.80611)">
      <path
         id="path10-1"
         style="display:inline;stroke-width:0.0100354"
         d="m -2317.134,-24.045537 c -0.4044,0.261467 -0.6066,0.71119 -0.6066,1.349169 0,0.460179 0.048,0.585684 0.337,0.941282 0.1926,0.21963 0.4526,0.43926 0.5971,0.481095 1.0303,0.271928 11.7862,2.248621 12.0559,2.206786 1.2615,-0.209175 1.6081,-2.206786 0.4911,-2.834304 -0.337,-0.188258 -11.4975,-2.353202 -12.1233,-2.353202 -0.2697,0 -0.5682,0.08367 -0.7512,0.209174 z m -26.4614,0.888988 c -3.0718,0.596144 -5.7294,1.160915 -5.9028,1.244585 -1.1458,0.596138 -0.8088,2.625122 0.4719,2.844759 0.337,0.05228 11.6708,-2.060364 12.1329,-2.269539 0.4815,-0.209167 0.78,-0.65889 0.8378,-1.255037 0.087,-1.024951 -0.4719,-1.673388 -1.4348,-1.652471 -0.2889,0 -3.0332,0.491558 -6.105,1.087703 z m 26.4518,-5.699978 c -0.9918,0.658897 -0.9147,2.227697 0.1252,2.729714 0.4141,0.198715 0.6356,0.209174 6.4709,0.177797 l 6.0472,-0.03138 0.3467,-0.240549 c 0.9244,-0.617062 0.8667,-2.13357 -0.1059,-2.656503 -0.3081,-0.177797 -0.8185,-0.188256 -6.4517,-0.188256 -5.9317,0 -6.1243,0.01045 -6.4324,0.209173 z m -32.3738,-0.02092 c -0.9726,0.522933 -1.0303,2.039441 -0.1059,2.656503 l 0.3466,0.240549 6.0472,0.03138 c 5.8354,0.03138 6.0569,0.02092 6.471,-0.177797 1.0785,-0.522934 1.1073,-2.175404 0.048,-2.750632 -0.3082,-0.177797 -0.8185,-0.188256 -6.4035,-0.188256 -5.585,0 -6.0954,0.01046 -6.4035,0.188256 z m 38.3825,-5.783647 c -3.0621,0.585685 -5.7198,1.150453 -5.8931,1.244581 -0.7222,0.366055 -0.9726,1.600178 -0.4622,2.259075 0.3081,0.386971 0.7029,0.62752 1.0592,0.62752 0.5874,0 11.7478,-2.196322 12.0752,-2.374119 0.4526,-0.261467 0.7704,-0.79486 0.7704,-1.328252 0,-0.930822 -0.5971,-1.537425 -1.4926,-1.516508 -0.26,0.01045 -2.9851,0.491558 -6.0569,1.087703 z m -38.421,-0.899446 c -0.4815,0.345136 -0.6644,0.773942 -0.6163,1.432838 0.048,0.617061 0.3371,1.077244 0.8378,1.286417 0.3081,0.135963 11.6225,2.311367 12.0077,2.311367 0.1541,0 0.4237,-0.09413 0.597,-0.209174 0.9148,-0.606602 0.9245,-2.154486 0.019,-2.666962 -0.3466,-0.198715 -11.4781,-2.353201 -12.1329,-2.353201 -0.2696,0 -0.5393,0.08367 -0.7126,0.198715 z m 20.1156,-0.261467 c -0.3081,0.146421 -0.5295,0.533392 -0.5295,0.941281 0,0.292842 1.9162,3.535032 2.3688,4.005672 0.2214,0.240549 0.414,0.345136 0.6162,0.345136 0.2022,0 0.3948,-0.104587 0.6163,-0.345136 0.4526,-0.47064 2.3688,-3.71283 2.3688,-4.005672 0,-0.386971 -0.2118,-0.773942 -0.4911,-0.941281 -0.3755,-0.198715 -4.5161,-0.209174 -4.9495,0 z m 9.2442,-6.683093 c -0.78,0.303302 -1.3962,1.370086 -1.2614,2.227698 0.096,0.648437 0.4911,1.234123 1.04,1.526966 l 0.5007,0.271926 h 3.2355 3.2354 l 0.5007,-0.271926 c 0.8185,-0.439265 1.2133,-1.391004 0.9822,-2.342743 -0.1445,-0.596145 -0.7703,-1.296876 -1.3,-1.453756 -0.6066,-0.177798 -6.442,-0.146421 -6.9331,0.04183 z m -20.5104,0 c -0.78,0.303302 -1.3963,1.370086 -1.2615,2.227698 0.096,0.648437 0.4911,1.234123 1.04,1.526966 l 0.5007,0.271926 h 3.2354 3.2355 l 0.5007,-0.271926 c 0.8185,-0.439265 1.2133,-1.391004 0.9822,-2.342743 -0.1444,-0.596145 -0.7703,-1.296876 -1.3,-1.453756 -0.6066,-0.177798 -6.4419,-0.146421 -6.933,0.04183 z m -6.9236,-32.955283 c -0.4332,0.177798 -0.857,0.596144 -1.0592,1.045868 -0.3562,0.826235 -2.7829,11.964723 -3.8517,17.685618 -2.6288,14.066917 -4.5547,30.256944 -6.2783,52.607129 -0.087,1.14 -0.1349,2.332284 -0.106,2.646046 0.1253,1.265499 1.0304,2.635585 2.1377,3.210813 0.5778,0.292845 2.34,0.617063 6.3073,1.139993 8.4064,1.129538 14.9736,1.568806 23.5437,1.568806 9.7642,0.01043 18.1031,-0.648435 27.4243,-2.133571 2.1763,-0.345136 2.6673,-0.533393 3.4377,-1.317796 0.7029,-0.711188 1.0977,-1.642007 1.1363,-2.666957 0.087,-1.976694 -1.0592,-14.84086 -2.1473,-24.096787 -2.3111,-19.693684 -5.1228,-35.810501 -8.4258,-48.193571 -0.2022,-0.763484 -1.0784,-1.526967 -1.7428,-1.537426 -0.1349,0 -0.4622,0.125505 -0.7415,0.271926 -0.5682,0.303302 -0.2696,-0.167339 -4.2658,6.651717 -1.5022,2.572834 -2.7925,4.685486 -2.8695,4.685486 -0.068,0 -0.7896,-0.230091 -1.5889,-0.512475 -3.6592,-1.286417 -6.625,-1.809351 -10.2167,-1.809351 -3.5725,0.01045 -6.8561,0.617062 -10.1493,1.893021 -0.6067,0.240549 -1.1652,0.428805 -1.2518,0.428805 -0.096,0 -1.6467,-2.269532 -3.8133,-5.553556 -3.8613,-5.856858 -3.9384,-5.950986 -4.7665,-6.097407 -0.1926,-0.03138 -0.5007,0 -0.7126,0.08367 z m 4.6703,11.619587 c 1.7622,2.677421 3.2354,4.863284 3.2835,4.863284 0.038,0 0.7126,-0.282385 1.5022,-0.617062 4.4295,-1.924396 7.4243,-2.625127 11.2471,-2.625127 3.8518,0 7.0969,0.732107 11.69,2.635586 0.8186,0.334677 1.5407,0.596144 1.6082,0.585686 0.068,-0.02092 1.348,-2.123111 2.8502,-4.675028 1.4926,-2.551916 2.7637,-4.643651 2.8118,-4.633193 0.058,0 0.3178,0.993575 0.597,2.206781 3.6688,16.095899 7.0775,40.673784 8.6375,62.291863 0.068,0.972654 0.096,1.809354 0.068,1.840727 -0.029,0.04185 -1.0111,0.21963 -2.1762,0.397432 -5.9991,0.909901 -10.6693,1.391004 -17.5736,1.809347 -2.8888,0.177802 -14.0684,0.177802 -16.9476,0 -7.1065,-0.428806 -11.2471,-0.857611 -17.6409,-1.819809 l -2.1955,-0.324218 v -0.33468 c 0,-0.18825 0.1348,-1.997604 0.2889,-4.037043 1.9162,-24.431466 4.0732,-40.924795 7.4049,-56.790604 0.934,-4.444936 1.2036,-5.637225 1.2711,-5.637225 0.038,0 1.5021,2.185863 3.2739,4.863283 z"
         transform="translate(2238.4279,-4.80611)" />
    </g>
  </g>
</svg>
